<?xml version="1.0" standalone="no"?>
<!DOCTYPE svg PUBLIC "-//W3C//DTD SVG 20010904//EN"
 "http://www.w3.org/TR/2001/REC-SVG-20010904/DTD/svg10.dtd">
<svg version="1.0" xmlns="http://www.w3.org/2000/svg"
 width="256.000000pt" height="256.000000pt" viewBox="0 0 256.000000 256.000000"
 preserveAspectRatio="xMidYMid meet">
<metadata>
Created by potrace 1.14, written by Peter Selinger 2001-2017
</metadata>
<g transform="translate(0.000000,256.000000) scale(0.100000,-0.100000)"
fill="#000000" stroke="none">
<path d="M316 1694 c-50 -18 -126 -75 -159 -117 -38 -50 -66 -141 -61 -199 13
-149 160 -247 289 -194 45 19 64 42 65 76 0 42 -14 52 -85 59 -57 6 -72 12
-91 35 -33 37 -31 81 6 140 30 46 76 76 118 76 20 0 77 -39 68 -47 -2 -2 0
-18 4 -34 5 -16 11 -142 15 -281 4 -158 11 -262 18 -278 28 -58 118 -66 155
-12 10 15 47 88 82 162 34 74 82 176 106 225 l43 90 -6 -135 c-14 -336 -10
-362 62 -376 71 -13 104 29 308 396 17 30 61 107 98 170 l67 115 66 6 c77 7
106 27 106 74 0 24 -6 34 -25 43 -34 16 -187 15 -220 0 -17 -8 -46 -46 -82
-107 -126 -216 -152 -259 -187 -323 -38 -69 -57 -92 -50 -61 2 10 5 117 7 238
l4 220 -28 27 c-20 20 -38 28 -63 28 -62 0 -86 -34 -201 -284 -58 -126 -107
-231 -109 -234 -2 -2 -5 61 -6 140 -2 213 -13 269 -64 323 -50 53 -162 70
-250 39z"/>
<path d="M2003 1690 c-28 -11 -53 -49 -49 -74 4 -30 36 -46 88 -46 26 0 48 -4
48 -8 0 -10 -202 -514 -232 -581 -12 -25 -37 -70 -57 -100 -92 -141 -261 -111
-263 47 0 58 32 139 70 175 58 55 118 78 274 102 29 4 42 13 53 35 22 42 19
55 -17 85 -31 26 -37 27 -103 22 -164 -14 -314 -103 -389 -231 -106 -181 -48
-403 120 -460 67 -23 167 -16 234 16 124 60 165 123 305 474 l68 172 92 4
c163 7 246 74 251 202 4 75 -17 116 -76 150 -31 19 -54 21 -215 23 -99 2 -190
-1 -202 -7z m335 -132 c17 -17 15 -52 -6 -78 -13 -17 -32 -24 -71 -28 l-52 -5
21 54 c12 29 24 57 26 61 8 12 69 9 82 -4z"/>
</g>
</svg>
